<svg width="80" height="80" viewBox="0 0 80 80" fill="none" xmlns="http://www.w3.org/2000/svg">
<circle cx="40" cy="40" r="40" fill="#172a3a"/>
<path d="M42.6011 48.6804C44.6089 48.3757 46.4182 47.1649 47.5435 45.329L59.436 25.7912C60.3627 24.2678 60.1274 22.2523 58.8771 21.0102C57.6268 19.7681 55.7219 19.6587 54.3539 20.7524L36.9453 34.6266C35.1802 36.0327 34.1358 38.2279 34.1211 40.5715L42.6011 48.6804ZM41.1595 50.6646L32.6281 42.5089C28.2299 42.6808 24.707 46.5321 24.707 51.2505C24.707 51.5552 24.7217 51.8599 24.7512 52.1567C24.8835 53.5238 24.001 55.0003 22.7065 55.0003H22.3535C21.0517 55.0003 20 56.1174 20 57.5002C20 58.8829 21.0517 60 22.3535 60H32.9443C37.4969 60 41.1816 56.0862 41.1816 51.2505C41.1816 51.0552 41.1743 50.8599 41.1669 50.6646H41.1595Z" fill="white"/>
</svg>
